<mxfile host="Electron" agent="Mozilla/5.0 (X11; Linux x86_64) AppleWebKit/537.36 (KHTML, like Gecko) draw.io/26.0.4 Chrome/128.0.6613.186 Electron/32.2.5 Safari/537.36" version="26.0.4">
  <diagram name="Page-1" id="Zg5kv8OLPwDF4CC6DcfX">
    <mxGraphModel dx="1114" dy="1198" grid="1" gridSize="10" guides="1" tooltips="1" connect="1" arrows="1" fold="1" page="1" pageScale="1" pageWidth="850" pageHeight="1100" math="0" shadow="0">
      <root>
        <mxCell id="0" />
        <mxCell id="1" parent="0" />
        <mxCell id="uXmh7aIBkYvXwwO1AqNK-1" value="Multi-AZ" style="fillColor=none;strokeColor=#147EBA;dashed=1;verticalAlign=top;fontStyle=0;fontColor=#147EBA;whiteSpace=wrap;html=1;" vertex="1" parent="1">
          <mxGeometry x="425" y="350" width="170" height="200" as="geometry" />
        </mxCell>
        <mxCell id="uXmh7aIBkYvXwwO1AqNK-2" style="edgeStyle=orthogonalEdgeStyle;rounded=0;orthogonalLoop=1;jettySize=auto;html=1;strokeColor=#00CC00;" edge="1" parent="1" source="uXmh7aIBkYvXwwO1AqNK-3" target="uXmh7aIBkYvXwwO1AqNK-7">
          <mxGeometry relative="1" as="geometry" />
        </mxCell>
        <mxCell id="uXmh7aIBkYvXwwO1AqNK-3" value="" style="sketch=0;outlineConnect=0;fontColor=#232F3E;gradientColor=none;fillColor=#232F3D;strokeColor=none;dashed=0;verticalLabelPosition=bottom;verticalAlign=top;align=center;html=1;fontSize=12;fontStyle=0;aspect=fixed;pointerEvents=1;shape=mxgraph.aws4.user;" vertex="1" parent="1">
          <mxGeometry x="250" y="381" width="78" height="78" as="geometry" />
        </mxCell>
        <mxCell id="uXmh7aIBkYvXwwO1AqNK-4" style="edgeStyle=orthogonalEdgeStyle;rounded=0;orthogonalLoop=1;jettySize=auto;html=1;exitX=1;exitY=0.25;exitDx=0;exitDy=0;exitPerimeter=0;startArrow=classic;startFill=1;" edge="1" parent="1" source="uXmh7aIBkYvXwwO1AqNK-7" target="uXmh7aIBkYvXwwO1AqNK-20">
          <mxGeometry relative="1" as="geometry">
            <Array as="points">
              <mxPoint x="640" y="401" />
              <mxPoint x="640" y="355" />
            </Array>
          </mxGeometry>
        </mxCell>
        <mxCell id="uXmh7aIBkYvXwwO1AqNK-5" style="edgeStyle=orthogonalEdgeStyle;rounded=0;orthogonalLoop=1;jettySize=auto;html=1;exitX=1;exitY=0.5;exitDx=0;exitDy=0;exitPerimeter=0;strokeColor=#00CC00;startArrow=classic;startFill=1;" edge="1" parent="1" source="uXmh7aIBkYvXwwO1AqNK-7" target="uXmh7aIBkYvXwwO1AqNK-22">
          <mxGeometry relative="1" as="geometry">
            <Array as="points">
              <mxPoint x="640" y="420" />
              <mxPoint x="640" y="454" />
            </Array>
          </mxGeometry>
        </mxCell>
        <mxCell id="uXmh7aIBkYvXwwO1AqNK-6" style="edgeStyle=orthogonalEdgeStyle;rounded=0;orthogonalLoop=1;jettySize=auto;html=1;exitX=1;exitY=0.75;exitDx=0;exitDy=0;exitPerimeter=0;strokeColor=#FF8000;startArrow=classic;startFill=1;" edge="1" parent="1" source="uXmh7aIBkYvXwwO1AqNK-7" target="uXmh7aIBkYvXwwO1AqNK-24">
          <mxGeometry relative="1" as="geometry">
            <Array as="points">
              <mxPoint x="630" y="440" />
              <mxPoint x="630" y="555" />
            </Array>
          </mxGeometry>
        </mxCell>
        <mxCell id="uXmh7aIBkYvXwwO1AqNK-7" value="ELB - Elastic Load Balancer&lt;div&gt;+&lt;/div&gt;&lt;div&gt;Health Checks&lt;/div&gt;&lt;div&gt;+&lt;/div&gt;&lt;div&gt;Multi-AZ&lt;/div&gt;" style="sketch=0;points=[[0,0,0],[0.25,0,0],[0.5,0,0],[0.75,0,0],[1,0,0],[0,1,0],[0.25,1,0],[0.5,1,0],[0.75,1,0],[1,1,0],[0,0.25,0],[0,0.5,0],[0,0.75,0],[1,0.25,0],[1,0.5,0],[1,0.75,0]];outlineConnect=0;fontColor=#232F3E;fillColor=#ED7100;strokeColor=#ffffff;dashed=0;verticalLabelPosition=bottom;verticalAlign=top;align=center;html=1;fontSize=12;fontStyle=0;aspect=fixed;shape=mxgraph.aws4.resourceIcon;resIcon=mxgraph.aws4.elastic_load_balancing;" vertex="1" parent="1">
          <mxGeometry x="471" y="381" width="78" height="78" as="geometry" />
        </mxCell>
        <mxCell id="uXmh7aIBkYvXwwO1AqNK-36" style="edgeStyle=orthogonalEdgeStyle;rounded=0;orthogonalLoop=1;jettySize=auto;html=1;strokeColor=#00CC00;" edge="1" parent="1" source="uXmh7aIBkYvXwwO1AqNK-9" target="uXmh7aIBkYvXwwO1AqNK-3">
          <mxGeometry relative="1" as="geometry" />
        </mxCell>
        <mxCell id="uXmh7aIBkYvXwwO1AqNK-38" style="edgeStyle=orthogonalEdgeStyle;rounded=0;orthogonalLoop=1;jettySize=auto;html=1;exitX=1;exitY=0.75;exitDx=0;exitDy=0;exitPerimeter=0;strokeColor=#FF8000;" edge="1" parent="1" source="uXmh7aIBkYvXwwO1AqNK-9" target="uXmh7aIBkYvXwwO1AqNK-35">
          <mxGeometry relative="1" as="geometry">
            <Array as="points">
              <mxPoint x="180" y="440" />
              <mxPoint x="180" y="560" />
            </Array>
          </mxGeometry>
        </mxCell>
        <mxCell id="uXmh7aIBkYvXwwO1AqNK-39" style="edgeStyle=orthogonalEdgeStyle;rounded=0;orthogonalLoop=1;jettySize=auto;html=1;exitX=1;exitY=0.25;exitDx=0;exitDy=0;exitPerimeter=0;" edge="1" parent="1" source="uXmh7aIBkYvXwwO1AqNK-9" target="uXmh7aIBkYvXwwO1AqNK-34">
          <mxGeometry relative="1" as="geometry">
            <Array as="points">
              <mxPoint x="180" y="401" />
              <mxPoint x="180" y="280" />
            </Array>
          </mxGeometry>
        </mxCell>
        <mxCell id="uXmh7aIBkYvXwwO1AqNK-9" value="Amazon Route 53&lt;div&gt;&lt;div style=&quot;color: rgb(0, 0, 0);&quot;&gt;DNS Query&lt;/div&gt;&lt;div style=&quot;color: rgb(0, 0, 0);&quot;&gt;For api.whatisthetime.com&lt;/div&gt;&lt;div style=&quot;color: rgb(0, 0, 0);&quot;&gt;Alias Record&lt;/div&gt;&lt;/div&gt;" style="sketch=0;points=[[0,0,0],[0.25,0,0],[0.5,0,0],[0.75,0,0],[1,0,0],[0,1,0],[0.25,1,0],[0.5,1,0],[0.75,1,0],[1,1,0],[0,0.25,0],[0,0.5,0],[0,0.75,0],[1,0.25,0],[1,0.5,0],[1,0.75,0]];outlineConnect=0;fontColor=#232F3E;fillColor=#8C4FFF;strokeColor=#ffffff;dashed=0;verticalLabelPosition=bottom;verticalAlign=top;align=left;html=1;fontSize=12;fontStyle=0;aspect=fixed;shape=mxgraph.aws4.resourceIcon;resIcon=mxgraph.aws4.route_53;" vertex="1" parent="1">
          <mxGeometry x="30" y="381" width="78" height="78" as="geometry" />
        </mxCell>
        <mxCell id="uXmh7aIBkYvXwwO1AqNK-18" value="Auto Scaling group" style="points=[[0,0],[0.25,0],[0.5,0],[0.75,0],[1,0],[1,0.25],[1,0.5],[1,0.75],[1,1],[0.75,1],[0.5,1],[0.25,1],[0,1],[0,0.75],[0,0.5],[0,0.25]];outlineConnect=0;gradientColor=none;html=1;whiteSpace=wrap;fontSize=12;fontStyle=0;container=1;pointerEvents=0;collapsible=0;recursiveResize=0;shape=mxgraph.aws4.groupCenter;grIcon=mxgraph.aws4.group_auto_scaling_group;grStroke=1;strokeColor=#D86613;fillColor=none;verticalAlign=top;align=center;fontColor=#D86613;dashed=1;spacingTop=25;" vertex="1" parent="1">
          <mxGeometry x="670" y="240" width="140" height="360" as="geometry" />
        </mxCell>
        <mxCell id="uXmh7aIBkYvXwwO1AqNK-19" value="Availability Zone 1" style="fillColor=none;strokeColor=#147EBA;dashed=1;verticalAlign=top;fontStyle=0;fontColor=#147EBA;whiteSpace=wrap;html=1;" vertex="1" parent="uXmh7aIBkYvXwwO1AqNK-18">
          <mxGeometry x="12.5" y="60" width="115" height="90" as="geometry" />
        </mxCell>
        <mxCell id="uXmh7aIBkYvXwwO1AqNK-20" value="" style="sketch=0;outlineConnect=0;fontColor=#232F3E;gradientColor=none;fillColor=#ED7100;strokeColor=none;dashed=0;verticalLabelPosition=bottom;verticalAlign=top;align=center;html=1;fontSize=12;fontStyle=0;aspect=fixed;pointerEvents=1;shape=mxgraph.aws4.m5_instance;" vertex="1" parent="uXmh7aIBkYvXwwO1AqNK-18">
          <mxGeometry x="46" y="90" width="48" height="48" as="geometry" />
        </mxCell>
        <mxCell id="uXmh7aIBkYvXwwO1AqNK-21" value="Availability Zone 2" style="fillColor=none;strokeColor=#147EBA;dashed=1;verticalAlign=top;fontStyle=0;fontColor=#147EBA;whiteSpace=wrap;html=1;" vertex="1" parent="uXmh7aIBkYvXwwO1AqNK-18">
          <mxGeometry x="12.5" y="160" width="115" height="90" as="geometry" />
        </mxCell>
        <mxCell id="uXmh7aIBkYvXwwO1AqNK-22" value="" style="sketch=0;outlineConnect=0;fontColor=#232F3E;gradientColor=none;fillColor=#ED7100;strokeColor=none;dashed=0;verticalLabelPosition=bottom;verticalAlign=top;align=center;html=1;fontSize=12;fontStyle=0;aspect=fixed;pointerEvents=1;shape=mxgraph.aws4.m5_instance;" vertex="1" parent="uXmh7aIBkYvXwwO1AqNK-18">
          <mxGeometry x="46" y="190" width="48" height="48" as="geometry" />
        </mxCell>
        <mxCell id="uXmh7aIBkYvXwwO1AqNK-23" value="Availability Zone 3" style="fillColor=none;strokeColor=#147EBA;dashed=1;verticalAlign=top;fontStyle=0;fontColor=#147EBA;whiteSpace=wrap;html=1;" vertex="1" parent="uXmh7aIBkYvXwwO1AqNK-18">
          <mxGeometry x="12.5" y="260" width="115" height="90" as="geometry" />
        </mxCell>
        <mxCell id="uXmh7aIBkYvXwwO1AqNK-24" value="" style="sketch=0;outlineConnect=0;fontColor=#232F3E;gradientColor=none;fillColor=#ED7100;strokeColor=none;dashed=0;verticalLabelPosition=bottom;verticalAlign=top;align=center;html=1;fontSize=12;fontStyle=0;aspect=fixed;pointerEvents=1;shape=mxgraph.aws4.m5_instance;" vertex="1" parent="uXmh7aIBkYvXwwO1AqNK-18">
          <mxGeometry x="46" y="290" width="48" height="48" as="geometry" />
        </mxCell>
        <mxCell id="uXmh7aIBkYvXwwO1AqNK-25" style="edgeStyle=orthogonalEdgeStyle;rounded=0;orthogonalLoop=1;jettySize=auto;html=1;entryX=0;entryY=0.25;entryDx=0;entryDy=0;entryPerimeter=0;" edge="1" parent="1" source="uXmh7aIBkYvXwwO1AqNK-34" target="uXmh7aIBkYvXwwO1AqNK-7">
          <mxGeometry relative="1" as="geometry">
            <Array as="points">
              <mxPoint x="395" y="279" />
              <mxPoint x="395" y="401" />
            </Array>
          </mxGeometry>
        </mxCell>
        <mxCell id="uXmh7aIBkYvXwwO1AqNK-26" style="edgeStyle=orthogonalEdgeStyle;rounded=0;orthogonalLoop=1;jettySize=auto;html=1;entryX=0;entryY=0.75;entryDx=0;entryDy=0;entryPerimeter=0;strokeColor=#FF8000;" edge="1" parent="1" source="uXmh7aIBkYvXwwO1AqNK-35" target="uXmh7aIBkYvXwwO1AqNK-7">
          <mxGeometry relative="1" as="geometry">
            <Array as="points">
              <mxPoint x="395" y="561" />
              <mxPoint x="395" y="440" />
            </Array>
          </mxGeometry>
        </mxCell>
        <mxCell id="uXmh7aIBkYvXwwO1AqNK-34" value="" style="sketch=0;outlineConnect=0;fontColor=#232F3E;gradientColor=none;fillColor=#232F3D;strokeColor=none;dashed=0;verticalLabelPosition=bottom;verticalAlign=top;align=center;html=1;fontSize=12;fontStyle=0;aspect=fixed;pointerEvents=1;shape=mxgraph.aws4.user;" vertex="1" parent="1">
          <mxGeometry x="250" y="240" width="78" height="78" as="geometry" />
        </mxCell>
        <mxCell id="uXmh7aIBkYvXwwO1AqNK-35" value="" style="sketch=0;outlineConnect=0;fontColor=#232F3E;gradientColor=none;fillColor=#232F3D;strokeColor=none;dashed=0;verticalLabelPosition=bottom;verticalAlign=top;align=center;html=1;fontSize=12;fontStyle=0;aspect=fixed;pointerEvents=1;shape=mxgraph.aws4.user;" vertex="1" parent="1">
          <mxGeometry x="250" y="522" width="78" height="78" as="geometry" />
        </mxCell>
        <mxCell id="uXmh7aIBkYvXwwO1AqNK-40" value="What time is it?" style="text;html=1;align=center;verticalAlign=middle;resizable=0;points=[];autosize=1;strokeColor=none;fillColor=none;fontStyle=1;fontSize=17;" vertex="1" parent="1">
          <mxGeometry x="320" y="240" width="140" height="30" as="geometry" />
        </mxCell>
      </root>
    </mxGraphModel>
  </diagram>
</mxfile>
